<svg xmlns="http://www.w3.org/2000/svg" xmlns:xlink="http://www.w3.org/1999/xlink" width="45" height="57" viewBox="0 0 45 57">
  <g transform="translate(0.5,13)">
    <path d="M18.049 44s23.932-6.343 25.69-14.336C47.04 14.634 18 18.427 18 18.427L18.049 44z" fill="#7C7C7C" opacity=".15"/>
  </g>
  <g transform="translate(0.5,13)">
    <path fill="#FFB700" d="M30.981 31.202C27.654 34.965 18.018 44 18.018 44S8.354 34.964 5.062 31.163c-6.281-7.25-7.187-18.71-.04-25.833 7.145-7.123 18.75-7.104 25.919.04 7.168 7.144 6.296 18.758.04 25.832z"/>
  </g>
    <g transform="translate(8 20), scale(0.8)">
      <path fill="#fff" d="M13.572 25.466c-.308-.655-.543-.61-.637-1.581-.065-.76-.098-1.467 0-2.428-2.457 1.537-5.035 2.575-8.966 2.58.505-1.476 4.344-2.859 5.683-3.34l-2.45-.252C5.42 20.042.666 18.507 0 17.308c3.539-.521 7.057-.305 9.8.759-.94-.897-2.087-1.602-2.892-2.632-1.948-2.494-3.456-4.588-4.704-8.247 2.99 1.394 5.66 3.518 7.596 6.021.423.548 1.032 1.045 1.323 1.72-.426-5.183.086-8.638 1.322-12.244.268-.783.43-1.714.882-2.328.43 1.373.98 2.778 1.323 4.25.362 1.56.597 3.226.686 4.908.098 1.383 0 2.598 0 3.896-.07.453-.119 1.295-.196 1.72 0-.033.098-.067.098-.1l1.666-2.177c1.38-1.771 5.105-4.95 7.35-5.717-.423 2.642-3.653 7.57-5.341 9.007l-2.548 2.176c3.254-1.253 6.529-1.573 10.485-1.012-.033.067-.065.084-.098.1-1.385 1.46-4.782 2.534-7.105 3.037l-2.694.252c1.69.228 4.869 2.154 5.684 3.29-2.625.386-5.355-.6-7.154-1.418l-1.96-1.112c-.197 2.253.157 3.455.588 4.908-.147.016-.392-.916-.539-.9z"/>
    </g>
</svg>