<svg xmlns="http://www.w3.org/2000/svg" class="wm-icon wm-logo-mini" width="42px" height="42px" fill="#00CDBE" viewBox="0 0 35 19">
  <g fill="none" transform="translate(2 0)">
    <path d="M.46.893v9.35h29.645V.893H.46z"/>
    <path fill="#FF0000" d="M18 .373v1.232h.035c.332-.47.73-.833 1.2-1.092.465-.258 1-.387 1.605-.387.58 0 1.11.11 1.59.334.478.223.842.617 1.09 1.18.272-.4.642-.75 1.11-1.057.468-.305 1.02-.457 1.66-.457.485 0 .935.06 1.35.176.414.117.768.305 1.064.563.296.258.527.596.692 1.013.166.417.25.92.25 1.506v6.092h-2.522v-5.16c0-.304-.012-.59-.036-.86-.023-.272-.088-.506-.194-.707-.107-.2-.264-.36-.47-.48-.208-.12-.49-.18-.844-.18-.355 0-.642.07-.86.2-.22.132-.392.31-.516.53-.124.212-.207.46-.25.74-.04.27-.06.55-.06.832v5.07h-2.52v-5.1c0-.27-.007-.54-.02-.8-.01-.267-.06-.51-.15-.733-.09-.224-.237-.4-.443-.537-.2-.13-.51-.2-.91-.2-.12 0-.27.03-.47.08-.19.05-.38.15-.57.3-.18.15-.34.36-.47.637-.13.28-.19.64-.19 1.086v5.28h-2.52V.373H18zM8.752 9.476l-1.634-6.11h-.035L5.52 9.476H2.91L0 .373h2.663l1.686 6.18h.03L5.91.373h2.452l1.562 6.163h.035L11.64.373h2.592L11.34 9.476H8.75z" transform="translate(.46 .767)"/>
    <path d="M31.72 3.01h1.204V.604h-2.41V3.01h1.205z"/>
    <path fill="#000000" d="M15.39 15.578c5.448 0 8.206-2.052 8.206-2.052l1.172 1.573s-4.068 3.42-9.38 3.42-9.38-3.42-9.38-3.42l1.174-1.58s2.758 2.05 8.208 2.05"/>
  </g>
</svg>